{
  "accessors": [
    {
      "bufferView": 0,
      "componentType": 5126,
      "count": 942,
      "max": [
        12.872928619384766,
        3.691845417022705,
        59.606021881103516
      ],
      "min": [
        -12.76936149597168,
        -6.745176315307617,
        23.68970489501953
      ],
      "type": "VEC3"
    },
    {
      "bufferView": 0,
      "byteOffset": 12,
      "componentType": 5126,
      "count": 942,
      "type": "VEC3"
    },
    {
      "bufferView": 1,
      "componentType": 5125,
      "count": 4698,
      "type": "SCALAR"
    },
    {
      "bufferView": 2,
      "componentType": 5126,
      "count": 314,
      "max": [
        2.9381463527679443,
        1.5327428579330444,
        69.72987365722656
      ],
      "min": [
        -2.9381461143493652,
        -9.034634590148926,
        64.21890258789063
      ],
      "type": "VEC3"
    },
    {
      "bufferView": 2,
      "byteOffset": 12,
      "componentType": 5126,
      "count": 314,
      "type": "VEC3"
    },
    {
      "bufferView": 3,
      "componentType": 5125,
      "count": 1377,
      "type": "SCALAR"
    },
    {
      "bufferView": 4,
      "componentType": 5126,
      "count": 1019,
      "max": [
        3.2657830715179443,
        1.153794765472412,
        69.37608337402344
      ],
      "min": [
        -3.239290237426758,
        -7.2933783531188965,
        56.79129409790039
      ],
      "type": "VEC3"
    },
    {
      "bufferView": 4,
      "byteOffset": 12,
      "componentType": 5126,
      "count": 1019,
      "type": "VEC3"
    },
    {
      "bufferView": 5,
      "componentType": 5125,
      "count": 5790,
      "type": "SCALAR"
    },
    {
      "bufferView": 6,
      "componentType": 5126,
      "count": 1694,
      "max": [
        23.191984176635742,
        1.941230058670044,
        51.41870880126953
      ],
      "min": [
        -23.191984176635742,
        -6.2890424728393555,
        35.060386657714844
      ],
      "type": "VEC3"
    },
    {
      "bufferView": 6,
      "byteOffset": 12,
      "componentType": 5126,
      "count": 1694,
      "type": "VEC3"
    },
    {
      "bufferView": 7,
      "componentType": 5125,
      "count": 8220,
      "type": "SCALAR"
    },
    {
      "bufferView": 8,
      "componentType": 5126,
      "count": 1099,
      "max": [
        10.06060791015625,
        4.223042011260986,
        25.52028465270996
      ],
      "min": [
        -9.977577209472656,
        -8.404908180236816,
        -0.0017461776733398438
      ],
      "type": "VEC3"
    },
    {
      "bufferView": 8,
      "byteOffset": 12,
      "componentType": 5126,
      "count": 1099,
      "type": "VEC3"
    },
    {
      "bufferView": 9,
      "componentType": 5125,
      "count": 5307,
      "type": "SCALAR"
    }
  ],
  "asset": {
    "version": "2.0"
  },
  "bufferViews": [
    {
      "buffer": 0,
      "byteLength": 37680,
      "byteStride": 40,
      "target": 34962
    },
    {
      "buffer": 0,
      "byteLength": 18792,
      "byteOffset": 37680,
      "target": 34963
    },
    {
      "buffer": 0,
      "byteLength": 12560,
      "byteOffset": 56472,
      "byteStride": 40,
      "target": 34962
    },
    {
      "buffer": 0,
      "byteLength": 5508,
      "byteOffset": 69032,
      "target": 34963
    },
    {
      "buffer": 0,
      "byteLength": 40760,
      "byteOffset": 74540,
      "byteStride": 40,
      "target": 34962
    },
    {
      "buffer": 0,
      "byteLength": 23160,
      "byteOffset": 115300,
      "target": 34963
    },
    {
      "buffer": 0,
      "byteLength": 67760,
      "byteOffset": 138460,
      "byteStride": 40,
      "target": 34962
    },
    {
      "buffer": 0,
      "byteLength": 32880,
      "byteOffset": 206220,
      "target": 34963
    },
    {
      "buffer": 0,
      "byteLength": 43960,
      "byteOffset": 239100,
      "byteStride": 40,
      "target": 34962
    },
    {
      "buffer": 0,
      "byteLength": 21228,
      "byteOffset": 283060,
      "target": 34963
    }
  ],
  "buffers": [
    {
      "byteLength": 304288,
      "uri": "man6.bin"
    }
  ],
  "materials": [
    {
      "name": "fallback Material",
      "pbrMetallicRoughness": {
        "baseColorFactor": [
          0.0,
          0.0,
          0.0,
          1.0
        ]
      }
    }
  ],
  "meshes": [
    {
      "name": "dvsfd003",
      "primitives": [
        {
          "attributes": {
            "NORMAL": 1,
            "POSITION": 0
          },
          "indices": 2,
          "material": 0,
          "mode": 4
        }
      ]
    },
    {
      "name": "maoz",
      "primitives": [
        {
          "attributes": {
            "NORMAL": 4,
            "POSITION": 3
          },
          "indices": 5,
          "material": 0,
          "mode": 4
        }
      ]
    },
    {
      "name": "head_t",
      "primitives": [
        {
          "attributes": {
            "NORMAL": 7,
            "POSITION": 6
          },
          "indices": 8,
          "material": 0,
          "mode": 4
        }
      ]
    },
    {
      "name": "handh",
      "primitives": [
        {
          "attributes": {
            "NORMAL": 10,
            "POSITION": 9
          },
          "indices": 11,
          "material": 0,
          "mode": 4
        }
      ]
    },
    {
      "name": "legt",
      "primitives": [
        {
          "attributes": {
            "NORMAL": 13,
            "POSITION": 12
          },
          "indices": 14,
          "material": 0,
          "mode": 4
        }
      ]
    }
  ],
  "nodes": [
    {
      "matrix": [
        0.01,
        0.0,
        0.0,
        0.0,
        0.0,
        0.01,
        0.0,
        0.0,
        0.0,
        0.0,
        0.01,
        0.0,
        0.0,
        0.0,
        0.0,
        1.0
      ],
      "mesh": 0,
      "name": "dvsfd003"
    },
    {
      "children": [
        0
      ],
      "matrix": [
        1.0,
        0.0,
        0.0,
        0.0,
        0.0,
        0.0,
        -1.0,
        0.0,
        0.0,
        1.0,
        0.0,
        0.0,
        -0.0007954692840576172,
        0.0,
        0.0,
        1.0
      ]
    },
    {
      "matrix": [
        0.01,
        0.0,
        0.0,
        0.0,
        0.0,
        0.01,
        0.0,
        0.0,
        0.0,
        0.0,
        0.01,
        0.0,
        0.0,
        0.0,
        0.0,
        1.0
      ],
      "mesh": 1,
      "name": "maoz"
    },
    {
      "children": [
        2
      ],
      "matrix": [
        1.0,
        0.0,
        0.0,
        0.0,
        0.0,
        0.0,
        -1.0,
        0.0,
        0.0,
        1.0,
        0.0,
        0.0,
        0.0,
        0.0,
        0.0,
        1.0
      ]
    },
    {
      "matrix": [
        0.01,
        0.0,
        0.0,
        0.0,
        0.0,
        0.01,
        0.0,
        0.0,
        0.0,
        0.0,
        0.01,
        0.0,
        0.0,
        0.0,
        0.0,
        1.0
      ],
      "mesh": 2,
      "name": "head_t"
    },
    {
      "children": [
        4
      ],
      "matrix": [
        1.0,
        0.0,
        0.0,
        0.0,
        0.0,
        0.0,
        -1.0,
        0.0,
        0.0,
        1.0,
        0.0,
        0.0,
        -7.885970175266266e-05,
        0.0,
        0.0,
        1.0
      ]
    },
    {
      "matrix": [
        0.01,
        0.0,
        0.0,
        0.0,
        0.0,
        0.01,
        0.0,
        0.0,
        0.0,
        0.0,
        0.01,
        0.0,
        0.0,
        0.0,
        0.0,
        1.0
      ],
      "mesh": 3,
      "name": "handh"
    },
    {
      "children": [
        6
      ],
      "matrix": [
        1.0,
        0.0,
        0.0,
        0.0,
        0.0,
        0.0,
        -1.0,
        0.0,
        0.0,
        1.0,
        0.0,
        0.0,
        -0.0007954692840576172,
        0.0,
        0.0,
        1.0
      ]
    },
    {
      "matrix": [
        0.01,
        0.0,
        0.0,
        0.0,
        0.0,
        0.01,
        0.0,
        0.0,
        0.0,
        0.0,
        0.01,
        0.0,
        0.0,
        0.0,
        0.0,
        1.0
      ],
      "mesh": 4,
      "name": "legt"
    },
    {
      "children": [
        8
      ],
      "matrix": [
        1.0,
        0.0,
        0.0,
        0.0,
        0.0,
        0.0,
        -1.0,
        0.0,
        0.0,
        1.0,
        0.0,
        0.0,
        -0.0007954692840576172,
        0.0,
        0.0,
        1.0
      ]
    }
  ],
  "scenes": [
    {
      "nodes": [
        1,
        3,
        5,
        7,
        9
      ]
    }
  ]
}
